<svg width="40" height="40" viewBox="0 0 40 40" fill="none" xmlns="http://www.w3.org/2000/svg">
<g clip-path="url(#clip0)">
<path d="M19.2367 33.3333H3.9993C2.52656 33.3333 1.33273 32.1394 1.33273 30.6667V28H21.7981L19.2367 33.3333Z" fill="#D3DCFB"/>
<path d="M36.002 12V23.203V30.6666H3.9993C2.52656 30.6666 1.33273 29.4727 1.33273 27.9999V12L20.0007 5.33328L36.002 12Z" fill="#EBF5FC"/>
<path d="M6.04185 17.3334H4.62521C4.28006 17.3334 4.00021 17.0535 4.00021 16.7084V15.2917C4.00021 14.9466 4.28006 14.6667 4.62521 14.6667H6.04185C6.38701 14.6667 6.66685 14.9466 6.66685 15.2917V16.7084C6.66685 17.0535 6.38701 17.3334 6.04185 17.3334Z" fill="#3C58A0"/>
<path d="M11.3752 17.3334H9.95859C9.61343 17.3334 9.33359 17.0535 9.33359 16.7084V15.2917C9.33359 14.9466 9.61343 14.6667 9.95859 14.6667H11.3752C11.7204 14.6667 12.0002 14.9466 12.0002 15.2917V16.7084C12.0002 17.0535 11.7204 17.3334 11.3752 17.3334Z" fill="#3C58A0"/>
<path d="M16.7085 17.3334H15.2918C14.9467 17.3334 14.6668 17.0535 14.6668 16.7084V15.2917C14.6668 14.9466 14.9467 14.6667 15.2918 14.6667H16.7085C17.0536 14.6667 17.3335 14.9466 17.3335 15.2917V16.7084C17.3335 17.0535 17.0537 17.3334 16.7085 17.3334Z" fill="#3C58A0"/>
<path d="M22.0418 17.3334H20.6252C20.2801 17.3334 20.0002 17.0535 20.0002 16.7084V15.2917C20.0002 14.9466 20.2801 14.6667 20.6252 14.6667H22.0418C22.387 14.6667 22.6668 14.9466 22.6668 15.2917V16.7084C22.6668 17.0535 22.387 17.3334 22.0418 17.3334Z" fill="#3C58A0"/>
<path d="M27.3743 17.3334H25.9576C25.6125 17.3334 25.3326 17.0535 25.3326 16.7084V15.2917C25.3326 14.9466 25.6125 14.6667 25.9576 14.6667H27.3743C27.7194 14.6667 27.9993 14.9466 27.9993 15.2917V16.7084C27.9993 17.0535 27.7195 17.3334 27.3743 17.3334Z" fill="#3C58A0"/>
<path d="M32.7077 17.3334H31.291C30.9459 17.3334 30.666 17.0535 30.666 16.7084V15.2917C30.666 14.9466 30.9459 14.6667 31.291 14.6667H32.7077C33.0528 14.6667 33.3326 14.9466 33.3326 15.2917V16.7084C33.3326 17.0535 33.0528 17.3334 32.7077 17.3334Z" fill="#3C58A0"/>
<path d="M6.04186 22.6666H4.62521C4.28006 22.6666 4.00021 22.3868 4.00021 22.0416V20.625C4.00021 20.2798 4.28006 20 4.62521 20H6.04186C6.38701 20 6.66686 20.2798 6.66686 20.625V22.0416C6.66686 22.3869 6.38701 22.6666 6.04186 22.6666Z" fill="#3C58A0"/>
<path d="M11.3752 22.6666H9.95859C9.61343 22.6666 9.33359 22.3868 9.33359 22.0416V20.625C9.33359 20.2798 9.61343 20 9.95859 20H11.3752C11.7204 20 12.0002 20.2798 12.0002 20.625V22.0416C12.0002 22.3869 11.7204 22.6666 11.3752 22.6666Z" fill="#3C58A0"/>
<path d="M16.7085 22.6666H15.2918C14.9467 22.6666 14.6668 22.3868 14.6668 22.0416V20.625C14.6668 20.2798 14.9467 20 15.2918 20H16.7085C17.0536 20 17.3335 20.2798 17.3335 20.625V22.0416C17.3335 22.3869 17.0537 22.6666 16.7085 22.6666Z" fill="#3C58A0"/>
<path d="M22.6669 22.6666V20.6666C22.6669 20.2984 22.3684 20 22.0002 20H20.6669C20.2987 20 20.0002 20.2984 20.0002 20.6666V22C20.0002 22.3682 20.2987 22.6666 20.6669 22.6666H22.6669Z" fill="#3C58A0"/>
<path d="M6.04185 28H4.62521C4.28006 28 4.00021 27.7202 4.00021 27.375V25.9584C4.00021 25.6132 4.28006 25.3334 4.62521 25.3334H6.04185C6.38701 25.3334 6.66685 25.6132 6.66685 25.9584V27.375C6.66685 27.7202 6.38701 28 6.04185 28Z" fill="#3C58A0"/>
<path d="M11.3752 28H9.95859C9.61343 28 9.33359 27.7202 9.33359 27.375V25.9584C9.33359 25.6132 9.61343 25.3334 9.95859 25.3334H11.3752C11.7204 25.3334 12.0002 25.6132 12.0002 25.9584V27.375C12.0002 27.7202 11.7204 28 11.3752 28Z" fill="#3C58A0"/>
<path d="M16.7085 28H15.2918C14.9467 28 14.6668 27.7202 14.6668 27.375V25.9584C14.6668 25.6132 14.9467 25.3334 15.2918 25.3334H16.7085C17.0536 25.3334 17.3335 25.6132 17.3335 25.9584V27.375C17.3335 27.7202 17.0537 28 16.7085 28Z" fill="#3C58A0"/>
<path d="M32.6888 14.6666H31.3099C31.2265 14.6666 31.147 14.683 31.0738 14.7119C31.3125 14.8061 31.4816 15.0383 31.4816 15.3105V16.6894C31.4816 16.9616 31.3124 17.1938 31.0738 17.288C31.147 17.3169 31.2265 17.3333 31.3099 17.3333H32.6888C33.0444 17.3333 33.3327 17.045 33.3327 16.6895V15.3105C33.3327 14.9549 33.0444 14.6666 32.6888 14.6666Z" fill="#2A428C"/>
<path d="M27.3555 14.6666H25.9765C25.8931 14.6666 25.8137 14.683 25.7404 14.7119C25.9791 14.8061 26.1482 15.0383 26.1482 15.3105V16.6894C26.1482 16.9616 25.979 17.1938 25.7404 17.288C25.8137 17.3169 25.8931 17.3333 25.9765 17.3333H27.3555C27.7111 17.3333 27.9993 17.045 27.9993 16.6895V15.3105C27.9993 14.9549 27.7111 14.6666 27.3555 14.6666Z" fill="#2A428C"/>
<path d="M22.023 14.6666H20.6441C20.5607 14.6666 20.4812 14.683 20.408 14.7119C20.6467 14.8061 20.8158 15.0383 20.8158 15.3105V16.6894C20.8158 16.9616 20.6467 17.1937 20.408 17.288C20.4812 17.3169 20.5607 17.3333 20.6441 17.3333H22.023C22.3786 17.3333 22.6669 17.045 22.6669 16.6895V15.3105C22.6668 14.9549 22.3786 14.6666 22.023 14.6666Z" fill="#2A428C"/>
<path d="M16.6897 14.6666H15.3108C15.2273 14.6666 15.1479 14.683 15.0747 14.7119C15.3133 14.8061 15.4825 15.0383 15.4825 15.3105V16.6894C15.4825 16.9616 15.3133 17.1938 15.0747 17.288C15.1479 17.3169 15.2273 17.3333 15.3108 17.3333H16.6897C17.0453 17.3333 17.3336 17.045 17.3336 16.6895V15.3105C17.3335 14.9549 17.0453 14.6666 16.6897 14.6666Z" fill="#2A428C"/>
<path d="M11.3563 14.6666H9.9774C9.89396 14.6666 9.81451 14.683 9.7413 14.7119C9.97997 14.8061 10.149 15.0383 10.149 15.3105V16.6894C10.149 16.9616 9.9799 17.1938 9.7413 17.288C9.81451 17.3169 9.89396 17.3333 9.9774 17.3333H11.3563C11.7119 17.3333 12.0002 17.045 12.0002 16.6895V15.3105C12.0002 14.9549 11.7119 14.6666 11.3563 14.6666Z" fill="#2A428C"/>
<path d="M6.02302 14.6666H4.64411C4.56068 14.6666 4.48122 14.683 4.40802 14.7119C4.64669 14.8061 4.81583 15.0383 4.81583 15.3105V16.6894C4.81583 16.9616 4.64669 17.1938 4.40802 17.288C4.48122 17.3169 4.56068 17.3333 4.64411 17.3333H6.02302C6.37864 17.3333 6.66692 17.045 6.66692 16.6895V15.3105C6.66685 14.9549 6.37857 14.6666 6.02302 14.6666Z" fill="#2A428C"/>
<path d="M6.02302 20H4.64411C4.56068 20 4.48122 20.0164 4.40802 20.0452C4.64669 20.1395 4.81583 20.3716 4.81583 20.6438V22.0228C4.81583 22.295 4.64669 22.5272 4.40802 22.6214C4.48122 22.6503 4.56068 22.6667 4.64411 22.6667H6.02302C6.37864 22.6667 6.66692 22.3784 6.66692 22.0229V20.6439C6.66684 20.2883 6.37856 20 6.02302 20Z" fill="#2A428C"/>
<path d="M6.02305 25.3334H4.64414C4.56071 25.3334 4.48125 25.3498 4.40805 25.3786C4.64672 25.4728 4.81586 25.705 4.81586 25.9772V27.3562C4.81586 27.6284 4.64672 27.8605 4.40805 27.9548C4.48125 27.9837 4.56071 28.0001 4.64414 28.0001H6.02305C6.37867 28.0001 6.66695 27.7118 6.66695 27.3563V25.9773C6.66688 25.6216 6.3786 25.3334 6.02305 25.3334Z" fill="#2A428C"/>
<path d="M11.3563 20H9.9774C9.89396 20 9.81451 20.0164 9.7413 20.0452C9.97997 20.1395 10.149 20.3716 10.149 20.6438V22.0228C10.149 22.295 9.9799 22.5272 9.7413 22.6214C9.81451 22.6503 9.89396 22.6667 9.9774 22.6667H11.3563C11.7119 22.6667 12.0002 22.3784 12.0002 22.0229V20.6439C12.0002 20.2883 11.7119 20 11.3563 20Z" fill="#2A428C"/>
<path d="M11.3563 25.3334H9.9774C9.89396 25.3334 9.81451 25.3498 9.7413 25.3786C9.97997 25.4728 10.149 25.705 10.149 25.9772V27.3562C10.149 27.6284 9.9799 27.8605 9.7413 27.9548C9.81451 27.9837 9.89396 28.0001 9.9774 28.0001H11.3563C11.7119 28.0001 12.0002 27.7118 12.0002 27.3563V25.9773C12.0002 25.6216 11.7119 25.3334 11.3563 25.3334Z" fill="#2A428C"/>
<path d="M16.6897 20H15.3108C15.2273 20 15.1479 20.0164 15.0747 20.0452C15.3133 20.1395 15.4825 20.3716 15.4825 20.6438V22.0228C15.4825 22.295 15.3133 22.5272 15.0747 22.6214C15.1479 22.6503 15.2273 22.6667 15.3108 22.6667H16.6897C17.0453 22.6667 17.3336 22.3784 17.3336 22.0229V20.6439C17.3335 20.2883 17.0453 20 16.6897 20Z" fill="#2A428C"/>
<path d="M22.6669 22.6666V20.6438C22.6669 20.2882 22.3786 20 22.023 20H20.6441C20.5606 20 20.4812 20.0164 20.408 20.0452C20.6466 20.1395 20.8158 20.3716 20.8158 20.6438V22.0228C20.8158 22.295 20.6466 22.5272 20.408 22.6214C20.4812 22.6503 20.5606 22.6667 20.6441 22.6667H22.6669V22.6666Z" fill="#2A428C"/>
<path d="M16.6897 25.3334H15.3108C15.2273 25.3334 15.1479 25.3498 15.0747 25.3786C15.3133 25.4728 15.4825 25.705 15.4825 25.9772V27.3562C15.4825 27.6284 15.3133 27.8605 15.0747 27.9548C15.1479 27.9837 15.2273 28.0001 15.3108 28.0001H16.6897C17.0453 28.0001 17.3336 27.7118 17.3336 27.3563V25.9773C17.3335 25.6216 17.0453 25.3334 16.6897 25.3334Z" fill="#2A428C"/>
<path d="M34.1495 11.2282V23.203V30.6666H36.0019V23.203V12L34.1495 11.2282Z" fill="#D3DCFB"/>
<path d="M36.002 12V5.33328C36.002 3.86055 34.808 2.66672 33.3354 2.66672H3.9993C2.52656 2.66672 1.33273 3.86055 1.33273 5.33328V12H36.002Z" fill="#FF4155"/>
<path d="M9.73505 5.93696H7.99935C7.66591 5.93696 7.39575 5.66672 7.39575 5.33336C7.39575 5 7.66599 4.72977 7.99935 4.72977H9.73505C10.0685 4.72977 10.3386 5 10.3386 5.33336C10.3386 5.66672 10.0684 5.93696 9.73505 5.93696Z" fill="#E80054"/>
<path d="M13.9993 5.93695H12.2636C11.9301 5.93695 11.66 5.66672 11.66 5.33336C11.66 5 11.9302 4.72977 12.2636 4.72977H13.9993C14.3327 4.72977 14.6029 5 14.6029 5.33336C14.6029 5.66672 14.3327 5.93695 13.9993 5.93695Z" fill="#E80054"/>
<path d="M25.0692 5.93695H23.3335C23 5.93695 22.7299 5.66672 22.7299 5.33336C22.7299 5 23.0001 4.72977 23.3335 4.72977H25.0692C25.4027 4.72977 25.6728 5 25.6728 5.33336C25.6728 5.66672 25.4027 5.93695 25.0692 5.93695Z" fill="#E80054"/>
<path d="M29.3336 5.93695H27.5978C27.2644 5.93695 26.9942 5.66672 26.9942 5.33336C26.9942 5 27.2644 4.72977 27.5978 4.72977H29.3336C29.667 4.72977 29.9372 5 29.9372 5.33336C29.9372 5.66672 29.6669 5.93695 29.3336 5.93695Z" fill="#E80054"/>
<path d="M12.666 5C12.666 5.92047 11.9198 6.66664 10.9993 6.66664C10.0789 6.66664 9.3327 5.92047 9.3327 5V1.66664C9.33262 0.746172 10.0788 0 10.9993 0C11.9197 0 12.6659 0.746172 12.6659 1.66664V5H12.666Z" fill="#EBF5FC"/>
<path d="M28.0002 5C28.0002 5.92047 27.254 6.66664 26.3336 6.66664C25.4131 6.66664 24.6668 5.92047 24.6668 5V1.66664C24.6668 0.746172 25.413 0 26.3335 0C27.254 0 28.0001 0.746172 28.0001 1.66664V5H28.0002Z" fill="#EBF5FC"/>
<path d="M26.3335 0C25.9913 0 25.6735 0.103437 25.4088 0.280312C25.8561 0.579219 26.1508 1.08836 26.1508 1.66672V5C26.1508 5.57828 25.8561 6.0875 25.4088 6.38641C25.6734 6.5632 25.9913 6.66672 26.3335 6.66672C27.254 6.66672 28.0001 5.92055 28.0001 5.00008V1.66664C28.0002 0.746172 27.254 0 26.3335 0V0Z" fill="#D3DCFB"/>
<path d="M10.9993 0C10.6571 0 10.3393 0.103438 10.0746 0.280313C10.5219 0.579219 10.8166 1.08836 10.8166 1.66672V5C10.8166 5.57828 10.5219 6.0875 10.0746 6.38641C10.3392 6.5632 10.6571 6.66672 10.9993 6.66672C11.9197 6.66672 12.6659 5.92055 12.6659 5.00008V1.66664C12.666 0.746172 11.9198 0 10.9993 0V0Z" fill="#D3DCFB"/>
<path d="M33.3354 2.66664H31.4836C32.9563 2.66664 34.1501 3.86047 34.1501 5.3332V12H36.0019V5.33328C36.0019 3.86055 34.808 2.66664 33.3354 2.66664Z" fill="#E80054"/>
<path d="M1.33264 8.72969H36.0019V9.93695H1.33264V8.72969Z" fill="#E80054"/>
<path d="M28.6673 40C34.1902 40 38.6673 35.5228 38.6673 30C38.6673 24.4772 34.1902 20 28.6673 20C23.1445 20 18.6673 24.4772 18.6673 30C18.6673 35.5228 23.1445 40 28.6673 40Z" fill="#4FABF7"/>
<path d="M28.6673 37.3334C32.7174 37.3334 36.0007 34.0501 36.0007 30C36.0007 25.9499 32.7174 22.6666 28.6673 22.6666C24.6172 22.6666 21.334 25.9499 21.334 30C21.334 34.0501 24.6172 37.3334 28.6673 37.3334Z" fill="#EBF5FC"/>
<path d="M28.6673 29.2702C28.3339 29.2702 28.0638 29 28.0638 28.6666V25.3333C28.0638 24.9999 28.334 24.7297 28.6673 24.7297C29.0008 24.7297 29.2709 24.9999 29.2709 25.3333V28.6666C29.2709 29 29.0007 29.2702 28.6673 29.2702Z" fill="#3C58A0"/>
<path d="M32.0007 30.6036H30.0006C29.6672 30.6036 29.397 30.3334 29.397 30C29.397 29.6666 29.6673 29.3964 30.0006 29.3964H32.0007C32.3341 29.3964 32.6043 29.6666 32.6043 30C32.6043 30.3334 32.3341 30.6036 32.0007 30.6036Z" fill="#3C58A0"/>
<path d="M28.6673 20C28.3552 20 28.0466 20.0151 27.7418 20.043C32.8306 20.5102 36.8162 24.7893 36.8162 30C36.8162 35.2107 32.8305 39.4898 27.7417 39.957C28.0465 39.9849 28.3551 40 28.6672 40C34.1901 40 38.6673 35.5228 38.6673 30C38.6673 24.4772 34.1901 20 28.6673 20Z" fill="#1886EA"/>
<path d="M28.6673 22.6666C28.354 22.6666 28.0454 22.6864 27.7424 22.7245C31.3558 23.1793 34.1508 26.2632 34.1508 30C34.1508 33.7368 31.3558 36.8207 27.7424 37.2755C28.0454 37.3136 28.354 37.3334 28.6673 37.3334C32.7174 37.3334 36.0007 34.0501 36.0007 30C36.0007 25.9499 32.7174 22.6666 28.6673 22.6666Z" fill="#D3DCFB"/>
<path d="M28.6673 31.3334C29.4037 31.3334 30.0007 30.7364 30.0007 30C30.0007 29.2636 29.4037 28.6666 28.6673 28.6666C27.9309 28.6666 27.334 29.2636 27.334 30C27.334 30.7364 27.9309 31.3334 28.6673 31.3334Z" fill="#FFDD40"/>
</g>
<defs>
<clipPath id="clip0">
<rect width="40" height="40" fill="white"/>
</clipPath>
</defs>
</svg>
